<svg xmlns="http://www.w3.org/2000/svg" shape-rendering="geometricPrecision" text-rendering="geometricPrecision" image-rendering="optimizeQuality" fill-rule="evenodd" clip-rule="evenodd" viewBox="0 0 512 512"><path fill-rule="nonzero" d="M255.998 0c70.69 0 134.694 28.657 181.017 74.981C483.342 121.308 512 185.309 512 255.998c0 70.69-28.655 134.694-74.985 181.017C390.692 483.345 326.688 512 255.998 512c-70.689 0-134.69-28.658-181.017-74.985C28.657 390.692 0 326.688 0 255.998c0-70.689 28.657-134.687 74.981-181.017C121.311 28.657 185.309 0 255.998 0zm-73.807 349.762V162.24h97.212c18.002 0 30.854 3.499 38.554 10.5 7.7 7.001 11.551 17.203 11.551 30.604 0 13.403-2.448 23.753-7.349 31.054-4.902 7.301-11.452 12.053-19.654 14.251v1.802c24.204 4.199 36.304 20.702 36.304 49.504 0 15.002-4 27.054-12.001 36.157-8.001 9.1-20.303 13.65-36.902 13.65H182.191zm83.412-74.708h-31.415v30.604h31.115c8.4 0 12.599-5.102 12.599-15.302 0-10.202-4.121-15.302-12.299-15.302zm-4.502-71.71h-26.913v27.904H260.8c7.602 0 11.401-4.65 11.401-13.951s-3.721-13.953-11.1-13.953zm148.722-101.171C370.461 62.812 316.071 38.46 255.998 38.46c-60.072 0-114.46 24.352-153.825 63.713-39.361 39.365-63.713 93.753-63.713 153.825 0 60.073 24.352 114.463 63.713 153.825 39.365 39.365 93.753 63.716 153.825 63.716 60.073 0 114.463-24.351 153.825-63.716 39.365-39.362 63.716-93.752 63.716-153.825 0-60.072-24.351-114.46-63.716-153.825z"/></svg>